<?xml version="1.0" encoding="utf-8"?>
<!-- Generator: Adobe Illustrator 18.0.0, SVG Export Plug-In . SVG Version: 6.00 Build 0)  -->
<!DOCTYPE svg PUBLIC "-//W3C//DTD SVG 1.1//EN" "http://www.w3.org/Graphics/SVG/1.1/DTD/svg11.dtd">
<svg version="1.1" id="Layer_1" xmlns="http://www.w3.org/2000/svg" xmlns:xlink="http://www.w3.org/1999/xlink" x="0px" y="0px"
	 viewBox="0 0 18 18" style="enable-background:new 0 0 18 18;" xml:space="preserve">
<path style="fill:#9DBDC7;" d="M7,14c1.7,0,3.3-0.6,4.5-1.6l5.4,5.4c0.1,0.1,0.3,0.2,0.4,0.2c0.2,0,0.3-0.1,0.5-0.2
	c0.2-0.2,0.2-0.7,0-0.9l-5.4-5.4c1-1.2,1.6-2.8,1.6-4.5c0-3.9-3.1-7-7-7C3.2,0,0,3.2,0,7C0,10.9,3.2,14,7,14 M7,1.3
	c3.2,0,5.7,2.6,5.7,5.7c0,3.2-2.6,5.7-5.7,5.7c-3.2,0-5.7-2.6-5.7-5.7S3.9,1.3,7,1.3"/>
</svg>
